<?xml version="1.0" encoding="UTF-8" standalone="no"?>
<svg
   xmlns:dc="http://purl.org/dc/elements/1.1/"
   xmlns:cc="http://creativecommons.org/ns#"
   xmlns:rdf="http://www.w3.org/1999/02/22-rdf-syntax-ns#"
   xmlns:svg="http://www.w3.org/2000/svg"
   xmlns="http://www.w3.org/2000/svg"
   xmlns:sodipodi="http://sodipodi.sourceforge.net/DTD/sodipodi-0.dtd"
   xmlns:inkscape="http://www.inkscape.org/namespaces/inkscape"
   width="210mm"
   height="297mm"
   viewBox="0 0 210 297"
   version="1.1"
   id="svg8"
   inkscape:version="1.0.1 (3bc2e813f5, 2020-09-07)"
   sodipodi:docname="new-tower-slot.svg">
  <defs
     id="defs2">
    <rect
       x="-89.054207"
       y="52.384827"
       width="150.04511"
       height="80.073951"
       id="rect911" />
    <inkscape:path-effect
       effect="bspline"
       id="path-effect885"
       is_visible="true"
       lpeversion="1"
       weight="33.333333"
       steps="2"
       helper_size="0"
       apply_no_weight="true"
       apply_with_weight="true"
       only_selected="false" />
    <inkscape:path-effect
       effect="bspline"
       id="path-effect871"
       is_visible="true"
       lpeversion="1"
       weight="33.333333"
       steps="2"
       helper_size="0"
       apply_no_weight="true"
       apply_with_weight="true"
       only_selected="false" />
    <inkscape:path-effect
       effect="mirror_symmetry"
       start_point="-78.052056,144.77173"
       end_point="-78.052056,246.12857"
       center_point="-78.052056,195.45015"
       id="path-effect867"
       is_visible="true"
       lpeversion="1"
       mode="free"
       discard_orig_path="false"
       fuse_paths="true"
       oposite_fuse="false"
       split_items="false" />
    <inkscape:path-effect
       effect="bspline"
       id="path-effect865"
       is_visible="true"
       lpeversion="1"
       weight="33.333333"
       steps="2"
       helper_size="0"
       apply_no_weight="true"
       apply_with_weight="true"
       only_selected="false" />
    <filter
       inkscape:collect="always"
       style="color-interpolation-filters:sRGB"
       id="filter995"
       x="-0.00058872765"
       width="1.0011775"
       y="-0.0010535789"
       height="1.0021072">
      <feGaussianBlur
         inkscape:collect="always"
         stdDeviation="0.0095415215"
         id="feGaussianBlur997" />
    </filter>
    <filter
       inkscape:collect="always"
       style="color-interpolation-filters:sRGB"
       id="filter999"
       x="-0.00012"
       width="1.00024"
       y="-0.00012"
       height="1.00024">
      <feGaussianBlur
         inkscape:collect="always"
         stdDeviation="0.0095415215"
         id="feGaussianBlur1001" />
    </filter>
  </defs>
  <sodipodi:namedview
     id="base"
     pagecolor="#ffffff"
     bordercolor="#666666"
     borderopacity="1.0"
     inkscape:pageopacity="0.0"
     inkscape:pageshadow="2"
     inkscape:zoom="0.70710678"
     inkscape:cx="354.7896"
     inkscape:cy="562.65239"
     inkscape:document-units="mm"
     inkscape:current-layer="layer2"
     inkscape:document-rotation="0"
     showgrid="false"
     inkscape:snap-global="false"
     showguides="true"
     inkscape:guide-bbox="true"
     inkscape:window-width="1920"
     inkscape:window-height="1017"
     inkscape:window-x="-8"
     inkscape:window-y="428"
     inkscape:window-maximized="1" />
  <metadata
     id="metadata5">
    <rdf:RDF>
      <cc:Work
         rdf:about="">
        <dc:format>image/svg+xml</dc:format>
        <dc:type
           rdf:resource="http://purl.org/dc/dcmitype/StillImage" />
        <dc:title></dc:title>
      </cc:Work>
    </rdf:RDF>
  </metadata>
  <g
     inkscape:groupmode="layer"
     id="layer2"
     inkscape:label="Ebene 2">
    <path
       style="opacity:0.5;fill:#999999;fill-opacity:1;stroke:#ffffff;stroke-width:5;stroke-linecap:round;stroke-linejoin:miter;stroke-miterlimit:4;stroke-dasharray:none;stroke-dashoffset:0;stroke-opacity:1;filter:url(#filter999)"
       id="path893"
       sodipodi:type="arc"
       sodipodi:cx="107.3999"
       sodipodi:cy="145.82211"
       sodipodi:rx="95.415215"
       sodipodi:ry="95.415215"
       sodipodi:start="0"
       sodipodi:end="6.2787135"
       sodipodi:arc-type="arc"
       d="M 202.81512,145.82211 A 95.415215,95.415215 0 0 1 107.50657,241.23727 95.415215,95.415215 0 0 1 11.984926,146.03545 95.415215,95.415215 0 0 1 107.07989,50.407435 95.415215,95.415215 0 0 1 202.81416,145.39544"
       sodipodi:open="true"
       inkscape:export-xdpi="16.58"
       inkscape:export-ydpi="16.58" />
    <text
       xml:space="preserve"
       id="text909"
       style="font-style:normal;font-weight:normal;font-size:10.5833px;line-height:1.25;font-family:sans-serif;letter-spacing:0px;word-spacing:0px;white-space:pre;shape-inside:url(#rect911);fill:#000000;fill-opacity:1;stroke:none;filter:url(#filter995);"
       transform="translate(175.87445,140.91627)"
       inkscape:export-xdpi="16.58"
       inkscape:export-ydpi="16.58"><tspan
         x="-89.054688"
         y="79.585223"><tspan
           style="font-style:normal;font-variant:normal;font-weight:bold;font-stretch:normal;font-size:31.75px;font-family:'Segoe Print';-inkscape-font-specification:'Segoe Print, Bold';font-variant-ligatures:normal;font-variant-caps:normal;font-variant-numeric:normal;font-variant-east-asian:normal">+1</tspan></tspan></text>
  </g>
  <g
     inkscape:label="Ebene 1"
     inkscape:groupmode="layer"
     id="layer1">
    <g
       id="g907"
       transform="translate(-15.914849,-5.9873081)"
       inkscape:export-xdpi="16.58"
       inkscape:export-ydpi="16.58">
      <path
         style="fill:#000000;stroke-width:0.100547"
         d="m 105.56318,121.05101 v -0.75024 l 0.37706,-0.0994 c 0.20738,-0.0547 1.39509,-0.35277 2.63936,-0.66246 3.16615,-0.78802 3.01642,-0.74241 3.01642,-0.91874 0,-0.0863 0.0759,-0.31689 0.16872,-0.51243 0.23323,-0.49151 0.80713,-0.72871 1.94084,-0.80216 l 0.89333,-0.0579 0.37188,-0.53996 c 0.77653,-1.12748 1.9469,-1.98944 3.11404,-2.29344 0.87654,-0.22831 10.27719,-0.22831 11.15372,0 1.17278,0.30547 2.37702,1.19583 3.10906,2.29871 l 0.35393,0.53321 0.9048,0.0586 c 1.14578,0.0742 1.71827,0.30966 1.95231,0.80289 0.0928,0.19555 0.16872,0.42614 0.16872,0.51243 0,0.17633 -0.14972,0.13072 3.01642,0.91874 1.24427,0.30969 2.43199,0.60779 2.63937,0.66246 l 0.37705,0.0994 v 0.75023 0.75023 h -18.09852 -18.09851 z m 14.42087,-8.37639 c -0.25509,-0.12626 -0.4924,-0.34973 -0.62842,-0.59175 -0.20865,-0.37123 -0.21857,-2.14016 -0.21857,-4.60962 0,-2.44855 0.0114,-4.59291 0.21295,-4.95155 0.11712,-0.20839 0.38345,-0.47472 0.59184,-0.59183 0.36479,-0.20502 0.5032,-0.21295 3.71984,-0.21295 3.24853,0 3.35177,0.006 3.7317,0.2196 0.24902,0.13996 0.46366,0.37028 0.59183,0.63503 0.18458,0.38129 0.2011,2.6067 0.2011,4.9017 0,2.31928 -0.015,4.16536 -0.20714,4.56225 -0.15038,0.31066 -0.32436,0.48464 -0.63502,0.63503 -0.4051,0.1961 -0.60159,0.20713 -3.68907,0.20706 -3.06822,-8e-5 -3.28544,-0.0121 -3.67104,-0.20297 z m -4.21532,-12.05442 c -0.8917,-0.20273 -1.07186,-0.5072 -1.13592,-1.919703 l -0.0467,-1.03061 h -1.4944 -1.4944 l -0.75474,-1.50695 -0.75473,-1.50695 v -3.01893 -3.01894 l 0.75473,-1.50695 0.75474,-1.506953 h 1.4944 1.4944 l 0.0467,-1.030609 c 0.054,-1.189944 0.20969,-1.587233 0.70385,-1.795689 0.49213,-0.207597 16.15794,-0.207597 16.65006,0 0.49417,0.208456 0.64989,0.605745 0.70386,1.795689 l 0.0467,1.030609 h 0.74029 0.7403 l 0.75536,1.508213 0.75536,1.50821 h 9.04863 9.04863 v 3.01642 3.01642 h -9.04861 -9.04863 l -0.75537,1.5082 -0.75536,1.50821 h -0.74029 -0.7403 l -0.0467,1.03061 c -0.0302,0.66534 -0.10344,1.13949 -0.20673,1.337823 -0.32347,0.62107 0.0252,0.59629 -8.62105,0.61266 -4.34114,0.008 -7.98346,-0.005 -8.09406,-0.0308 z"
         id="path24"
         sodipodi:nodetypes="ccssssscsssscsssssccccccssssssssssssssscccccccccccsssscccccccccccccccsssss" />
      <g
         id="g891"
         transform="matrix(0.7658841,0,0,0.7658841,183.23444,9.6367258)">
        <path
           style="fill:none;stroke:#000000;stroke-width:5.29167;stroke-linecap:butt;stroke-linejoin:miter;stroke-miterlimit:4;stroke-dasharray:none;stroke-opacity:1"
           d="m -122.76667,239.05104 10.45105,-62.30938 c -2.16077,0 -4.32127,0 -5.68283,-0.0684 -1.36156,-0.0684 -1.92394,-0.20525 -2.91454,-0.71017 -0.99059,-0.50493 -2.40932,-1.37799 -3.59425,-2.36797 -1.18494,-0.98997 -2.13595,-2.09689 -2.79863,-3.21942 -0.66268,-1.12253 -1.03685,-2.26063 -1.21619,-3.50793 -0.17934,-1.24729 -0.16374,-2.60366 -0.15594,-5.8076 0.008,-3.20394 0.008,-8.25524 0.0857,-10.94472 0.0779,-2.68947 0.23383,-3.01687 0.53007,-3.47684 0.29624,-0.45997 0.73277,-1.0524 1.31746,-1.63709 0.58469,-0.5847 1.31744,-1.16154 1.94119,-1.44996 0.62375,-0.28841 1.13824,-0.28841 2.9234,-0.29621 1.78517,-0.008 4.84089,-0.0234 6.52472,0.039 1.68384,0.0624 1.99564,0.20275 2.29959,0.51465 0.30396,0.31191 0.60018,0.79521 0.77159,1.60592 0.17141,0.81071 0.21818,1.94881 0.21816,2.92323 -1e-5,0.97441 -0.0468,1.78511 0.0625,2.362 0.10926,0.57688 0.37429,0.91987 0.63934,1.25507 0.26505,0.3352 0.53009,0.6626 0.90431,0.95877 0.37422,0.29616 0.85753,0.5612 1.43437,0.72483 0.57685,0.16363 1.24724,0.22599 1.863,0.13241 0.61576,-0.0936 1.17702,-0.34304 1.69925,-0.7016 0.52223,-0.35857 1.00553,-0.82628 1.32511,-1.30951 0.31959,-0.48324 0.47549,-0.98213 0.57685,-1.46541 0.10135,-0.48328 0.14812,-0.951 0.15594,-1.64477 0.008,-0.69378 -0.0233,-1.61361 -0.0234,-2.29962 -1e-5,-0.68602 0.0312,-1.13814 0.21046,-1.52803 0.17929,-0.38989 0.50669,-0.7173 0.77955,-0.96676 0.27286,-0.24947 0.49112,-0.42096 1.06031,-0.50669 0.56918,-0.0857 1.489016,-0.0857 3.656159,-0.11692 2.167142,-0.0312 5.581442,-0.0936 7.53811,0.008 1.956667,0.10143 2.455561,0.36646 2.829657,0.7719 0.374095,0.40544 0.623541,0.9511 0.755992,1.63708 0.132451,0.68597 0.148041,1.51226 0.17495,2.30813 0.02691,0.79586 0.06513,1.56125 0.282749,2.32983 0.217623,0.76857 0.614491,1.54026 1.265008,2.20166 0.650517,0.6614 1.554491,1.2126 2.44746,1.54326 0.892969,0.33065 1.774897,0.44089 2.519028,0.50152 0.703549,0.0573 1.28368,0.0703 1.857311,0.0809 0.573631,-0.0106 1.153762,-0.0236 1.857311,-0.0809 0.744131,-0.0606 1.626059,-0.17087 2.519028,-0.50152 0.892969,-0.33066 1.796943,-0.88186 2.44746,-1.54326 0.650517,-0.6614 1.047385,-1.43309 1.265008,-2.20166 0.217624,-0.76858 0.255841,-1.53397 0.282749,-2.32983 0.02691,-0.79587 0.0425,-1.62216 0.17495,-2.30813 0.132451,-0.68598 0.381897,-1.23164 0.755992,-1.63708 0.374096,-0.40544 0.87299,-0.67047 2.829657,-0.7719 1.956668,-0.10143 5.370968,-0.0391 7.53811,-0.008 2.167143,0.0312 3.086979,0.0312 3.656163,0.11692 0.569183,0.0857 0.787444,0.25722 1.060302,0.50669 0.272859,0.24946 0.600259,0.57687 0.779558,0.96676 0.179299,0.38989 0.210465,0.84201 0.210453,1.52803 -1.3e-5,0.68601 -0.03118,1.60584 -0.02336,2.29962 0.0078,0.69377 0.05459,1.16149 0.155948,1.64477 0.101354,0.48328 0.257256,0.98217 0.57684,1.46541 0.319584,0.48323 0.802882,0.95094 1.325114,1.30951 0.522231,0.35856 1.083493,0.60801 1.699251,0.7016 0.615758,0.0936 1.28615,0.0312 1.862995,-0.13241 0.576845,-0.16363 1.06015,-0.42867 1.43437,-0.72483 0.37422,-0.29617 0.639261,-0.62357 0.904311,-0.95877 0.26505,-0.3352 0.530085,-0.67819 0.639345,-1.25507 0.10926,-0.57689 0.06249,-1.38759 0.06247,-2.362 -1.3e-5,-0.97442 0.04676,-2.11252 0.218168,-2.92323 0.171408,-0.81071 0.467625,-1.29401 0.771583,-1.60592 0.303959,-0.3119 0.615758,-0.45221 2.299592,-0.51465 1.683834,-0.0624 4.739554,-0.0468 6.524718,-0.039 1.785164,0.008 2.299654,0.008 2.923403,0.29621 0.62375,0.28842 1.356497,0.86526 1.941189,1.44996 0.584693,0.58469 1.021221,1.17712 1.317462,1.63709 0.296241,0.45997 0.452147,0.78737 0.530073,3.47684 0.07793,2.68948 0.07793,7.74078 0.08573,10.94472 0.0078,3.20394 0.0234,4.56031 -0.15594,5.8076 -0.179342,1.2473 -0.553512,2.3854 -1.21619,3.50793 -0.662679,1.12253 -1.613691,2.22945 -2.798628,3.21942 -1.184937,0.98998 -2.603665,1.86304 -3.594257,2.36797 -0.990592,0.50492 -1.552972,0.64178 -2.914534,0.71017 -1.361562,0.0684 -3.522065,0.0684 -5.682832,0.0684 l 10.45105,62.30938 -2e-5,-4e-5 0.99218,5.4901 c -10.813118,0 -21.62652,0 -27.341748,-0.0221 -5.715228,-0.0221 -6.332557,-0.0661 -6.861677,-0.19847 -0.52912,-0.13231 -0.970052,-0.35278 -1.311736,-0.70549 -0.341683,-0.35271 -0.584203,-0.83775 -0.705501,-2.0724 -0.121297,-1.23466 -0.121297,-3.21898 -0.132321,-6.07431 -0.01102,-2.85533 -0.03307,-6.58144 -0.08819,-8.90762 -0.05511,-2.32618 -0.143304,-3.2522 -0.567743,-4.15631 -0.424439,-0.90411 -1.185121,-1.78606 -2.701963,-2.24909 -1.502127,-0.45854 -3.745291,-0.50623 -5.995899,-0.54994 -2.250608,0.0437 -4.493772,0.0914 -5.995899,0.54994 -1.516842,0.46303 -2.277524,1.34498 -2.701963,2.24909 -0.424439,0.90411 -0.512632,1.83013 -0.567743,4.15631 -0.05511,2.32618 -0.07716,6.05229 -0.08819,8.90762 -0.01102,2.85533 -0.01102,4.83965 -0.132321,6.07431 -0.121298,1.23465 -0.363818,1.71969 -0.705501,2.0724 -0.341684,0.35271 -0.782616,0.57318 -1.311736,0.70549 -0.52912,0.13232 -1.146449,0.17641 -6.861677,0.19847 -5.715228,0.0221 -16.528628,0.0221 -27.341748,0.0221 l 0.99218,-5.4901 z"
           id="path863"
           inkscape:path-effect="#path-effect865;#path-effect867"
           inkscape:original-d="m -122.76667,239.05104 10.45105,-62.30938 c 0,0 -4.32127,2.7e-4 -6.4823,0 -0.56214,-0.1366 -1.12452,-0.27346 -1.68718,-0.41059 -1.41852,-0.87284 -2.83725,-1.7459 -4.25627,-2.61924 -0.95079,-1.1067 -1.9018,-2.21362 -2.8531,-3.32083 -0.37392,-1.13788 -0.74809,-2.27598 -1.12253,-3.41437 0.0158,-1.35615 0.0314,-2.71252 0.0468,-4.06917 2.6e-4,-5.05123 2.6e-4,-10.10253 0,-15.15419 0.15617,-0.32714 0.31208,-0.65454 0.46772,-0.98221 0.43682,-0.5922 0.87335,-1.18463 1.30962,-1.77734 0.73304,-0.57661 1.46579,-1.15345 2.19829,-1.73057 0.51477,2.6e-4 1.02926,2.6e-4 1.54348,0 3.05611,-0.0153 6.11183,-0.0309 9.16735,-0.0468 0.31209,0.14059 0.62389,0.2809 0.93544,0.42095 0.2965,0.48359 0.59272,0.96689 0.88867,1.44994 0.047,1.13841 0.0938,2.27651 0.14032,3.41437 -0.0465,0.811 -0.0933,1.6217 -0.14032,2.43215 0.26532,0.34327 0.53035,0.68626 0.79513,1.02899 0.26531,0.32768 0.53035,0.65508 0.79513,0.98221 0.48358,0.26532 0.96689,0.53035 1.44994,0.79513 0.67067,0.0626 1.34106,0.12499 2.0112,0.18709 0.56154,-0.24919 1.1228,-0.49864 1.6838,-0.74835 0.48358,-0.46747 0.96688,-0.93518 1.44993,-1.40317 0.15618,-0.49865 0.31208,-0.99754 0.46772,-1.49671 0.047,-0.46746 0.0938,-0.93518 0.14032,-1.40316 -0.0309,-0.91961 -0.0621,-1.83944 -0.0935,-2.75956 0.0314,-0.45188 0.0626,-0.904 0.0935,-1.35639 0.32768,-0.32715 0.65508,-0.65455 0.98222,-0.98222 0.21854,-0.17124 0.4368,-0.34273 0.65481,-0.51449 0.92013,2.6e-4 1.839966,2.6e-4 2.759555,0 3.414701,-0.0621 6.829001,-0.12447 10.243105,-0.18709 0.499176,0.26531 0.998069,0.53035 1.496708,0.79513 0.249722,0.54595 0.499168,1.09161 0.748356,1.63702 0.01585,0.82659 0.03144,1.65288 0.04677,2.47892 0.03848,0.76568 0.0767,1.53107 0.114652,2.2962 0.397147,0.77198 0.794014,1.54367 1.190625,2.31511 0.904274,0.55149 1.808249,1.10269 2.711979,1.65364 0.882226,0.11051 1.764154,0.22075 2.645833,0.33073 0.606605,0.0113 1.81901,0.0331 1.81901,0.0331 l -0.03307,64.98824 c 0,0 -4.545199,0.0885 -6.818199,0.13229 -0.760389,0.88222 -1.521069,1.76417 -2.282032,2.64583 -0.08791,0.92633 -0.176104,1.85235 -0.264583,2.77812 -0.02177,3.72656 -0.04382,7.45267 -0.06615,11.17865 2.83e-4,1.98468 2.83e-4,3.969 0,5.95312 -0.242255,0.48536 -0.484776,0.9704 -0.727604,1.45521 -0.440708,0.22078 -0.881638,0.44125 -1.322917,0.66146 -0.61711,0.0444 -1.234439,0.0885 -1.852083,0.13229 -10.812835,2.8e-4 -32.439355,0 -32.439355,0 l 0.99218,-5.4901 z"
           sodipodi:nodetypes="ccccccccccccccccccccccccccccccccccccccccccccccccsccc"
           transform="matrix(0.93333984,0,0,0.93333984,-5.3868602,12.361571)" />
        <path
           style="fill:none;stroke:#000000;stroke-width:5.29167;stroke-linecap:butt;stroke-linejoin:miter;stroke-miterlimit:4;stroke-dasharray:none;stroke-opacity:1"
           d="m -109.07172,177.50273 c 21.203649,0 42.407031,0 63.610149,0"
           id="path869"
           inkscape:path-effect="#path-effect871"
           inkscape:original-d="m -109.07172,177.50273 c 21.203649,2.6e-4 42.407031,2.6e-4 63.610149,0" />
        <path
           style="opacity:0.507788;fill:none;fill-opacity:1;stroke:#ffffff;stroke-width:0;stroke-linecap:butt;stroke-linejoin:miter;stroke-miterlimit:4;stroke-dasharray:none;stroke-dashoffset:0;stroke-opacity:1"
           id="path873"
           sodipodi:type="arc"
           sodipodi:cx="-76.993752"
           sodipodi:cy="198.17291"
           sodipodi:rx="0.92604166"
           sodipodi:ry="8.7312498"
           sodipodi:start="0"
           sodipodi:end="6.2616829"
           sodipodi:arc-type="slice"
           d="m -76.06771,198.17291 a 0.92604166,8.7312498 0 0 1 -0.921064,8.73113 0.92604166,8.7312498 0 0 1 -0.930966,-8.63726 0.92604166,8.7312498 0 0 1 0.911055,-8.82398 0.92604166,8.7312498 0 0 1 0.940761,8.54238 l -0.925828,0.18773 z" />
        <path
           style="fill:none;stroke:#000000;stroke-width:5.31812;stroke-linecap:round;stroke-linejoin:miter;stroke-miterlimit:4;stroke-dasharray:none;stroke-opacity:1"
           d="m -77.922429,191.01753 c 6.5e-5,1.15386 1.31e-4,2.30758 1.31e-4,4.14725 0,1.83967 -6.6e-5,4.36536 -1.31e-4,6.89098"
           id="path883"
           inkscape:path-effect="#path-effect885"
           inkscape:original-d="m -77.922429,191.01753 c 3.3e-4,1.15386 3.95e-4,2.30758 1.96e-4,3.46114 1.4e-5,2.52578 1.34e-4,5.05147 -1.96e-4,7.57709"
           sodipodi:nodetypes="ccc" />
      </g>
    </g>
  </g>
</svg>
