<?xml version="1.0" encoding="UTF-8" standalone="no"?>
<svg
   xmlns:dc="http://purl.org/dc/elements/1.1/"
   xmlns:cc="http://creativecommons.org/ns#"
   xmlns:rdf="http://www.w3.org/1999/02/22-rdf-syntax-ns#"
   xmlns:svg="http://www.w3.org/2000/svg"
   xmlns="http://www.w3.org/2000/svg"
   xmlns:sodipodi="http://sodipodi.sourceforge.net/DTD/sodipodi-0.dtd"
   xmlns:inkscape="http://www.inkscape.org/namespaces/inkscape"
   width="210mm"
   height="297mm"
   viewBox="0 0 210 297"
   version="1.1"
   id="svg8"
   inkscape:version="1.0.1 (3bc2e813f5, 2020-09-07)"
   sodipodi:docname="special-attack.svg">
  <defs
     id="defs2">
    <clipPath
       clipPathUnits="userSpaceOnUse"
       id="clipPath854">
      <rect
         style="opacity:0.5;fill:#999999;stroke:#ffffff;stroke-width:5.25182;stroke-linecap:round"
         id="rect856"
         width="80.909019"
         height="71.558693"
         x="74.928535"
         y="59.219986" />
    </clipPath>
    <pattern
       id="EMFhbasepattern"
       patternUnits="userSpaceOnUse"
       width="6"
       height="6"
       x="0"
       y="0" />
  </defs>
  <sodipodi:namedview
     id="base"
     pagecolor="#ffffff"
     bordercolor="#666666"
     borderopacity="1.0"
     inkscape:pageopacity="0.0"
     inkscape:pageshadow="2"
     inkscape:zoom="0.35370861"
     inkscape:cx="843.10098"
     inkscape:cy="629.93173"
     inkscape:document-units="mm"
     inkscape:current-layer="layer1"
     inkscape:document-rotation="0"
     showgrid="false"
     inkscape:snap-global="true"
     inkscape:window-width="1920"
     inkscape:window-height="1017"
     inkscape:window-x="-8"
     inkscape:window-y="428"
     inkscape:window-maximized="1"
     showguides="true"
     inkscape:guide-bbox="true">
    <sodipodi:guide
       position="107.80929,266.79844"
       orientation="1,0"
       id="guide893" />
    <sodipodi:guide
       position="23.188814,150.57386"
       orientation="0,-1"
       id="guide895" />
  </sodipodi:namedview>
  <metadata
     id="metadata5">
    <rdf:RDF>
      <cc:Work
         rdf:about="">
        <dc:format>image/svg+xml</dc:format>
        <dc:type
           rdf:resource="http://purl.org/dc/dcmitype/StillImage" />
        <dc:title></dc:title>
      </cc:Work>
    </rdf:RDF>
  </metadata>
  <g
     inkscape:label="Layer 1"
     inkscape:groupmode="layer"
     id="layer1">
    <path
       style="opacity:0.5;fill:#000000;stroke:#ffffff;stroke-width:4.99999;stroke-linecap:round;fill-opacity:0.5"
       id="path891"
       sodipodi:type="arc"
       sodipodi:cx="107.90263"
       sodipodi:cy="146.51483"
       sodipodi:rx="92.56353"
       sodipodi:ry="92.56353"
       sodipodi:start="0"
       sodipodi:end="6.2787173"
       sodipodi:open="true"
       sodipodi:arc-type="arc"
       d="M 200.46616,146.51483 A 92.56353,92.56353 0 0 1 108.00603,239.0783 92.56353,92.56353 0 0 1 15.339335,146.72162 92.56353,92.56353 0 0 1 107.59245,53.951821 92.56353,92.56353 0 0 1 200.46524,146.10126" />
    <path
       style="fill:#000000;stroke-width:0.478088"
       d="m 51.41856,200.08385 c 0,-0.0742 2.52711,-0.51702 5.61579,-0.98392 3.50141,-0.5293 5.80529,-1.10805 6.11905,-1.53714 0.27719,-0.3791 1.78118,-0.84306 3.34835,-1.03297 1.56483,-0.18961 3.27541,-0.57123 3.80131,-0.84804 0.52589,-0.27682 1.64583,-0.63391 2.48875,-0.7935 1.2378,-0.23439 1.47948,-0.15193 1.25662,0.4289 -0.20132,0.52461 0.22471,0.42325 1.575,-0.37475 1.46483,-0.86567 2.56531,-1.09387 5.2754,-1.09387 2.61844,0 3.31205,-0.1358 2.94689,-0.57667 -0.69925,-0.8444 -0.0598,-1.5654 2.32322,-2.61952 1.30929,-0.57917 2.9183,-0.88715 4.2173,-0.80726 1.79747,0.11046 2.24816,-0.0588 3.1255,-1.17414 1.58753,-2.01822 4.59332,-3.33201 7.72853,-3.37809 1.58628,-0.0234 2.97832,0.20819 3.32271,0.5526 0.32601,0.32599 0.81862,0.58556 1.09471,0.5768 0.7537,-0.0239 -1.64848,-1.89644 -2.43281,-1.89644 -0.54551,0 -0.62258,-0.62865 -0.39563,-3.22709 0.47041,-5.38629 0.46666,-5.3785 2.59129,-5.3785 1.02966,0 2.42398,-0.20982 3.09846,-0.46627 0.78176,-0.29721 1.65966,-0.30151 2.42156,-0.0127 1.06052,0.4032 1.19844,0.73863 1.22374,2.9762 0.0164,1.38699 0.20202,3.57881 0.41411,4.87068 0.3554,2.16476 0.28758,2.43963 -0.86515,3.50674 -1.22367,1.13277 -1.22516,1.14143 -0.0686,0.40013 1.77833,-1.13993 5.23051,-0.95832 7.80506,0.41059 1.53125,0.81416 2.11698,0.95907 1.93242,0.47807 -0.36768,-0.95812 1.69923,-0.91146 3.10046,0.0701 0.75335,0.52766 0.94215,0.93275 0.61723,1.32424 -0.3494,0.421 7.5e-4,0.51934 1.38058,0.38775 3.27197,-0.31203 7.90765,2.03839 6.75632,3.42563 -0.34325,0.41363 0.35579,0.55635 2.72471,0.55635 2.26915,0 3.75785,0.28572 5.17139,0.99251 1.20499,0.60252 1.89584,0.7603 1.75819,0.4016 -0.17437,-0.45421 0.23796,-0.48647 1.78217,-0.13943 1.10491,0.24825 2.39719,0.65917 2.87173,0.91314 0.47453,0.25398 1.69572,0.46178 2.71372,0.46178 1.19389,0 2.39334,0.40019 3.37909,1.12745 1.10759,0.81716 2.71219,1.28926 5.82995,1.71534 2.36597,0.32332 4.30174,0.67709 4.30174,0.78614 0,0.10901 -25.27891,0.17891 -56.17536,0.155 -30.89648,-0.0237 -56.1754,-0.10393 -56.1754,-0.17817 z m 72.93598,-6.26044 c -1.5153,-2.31262 -6.0961,-3.6945 -8.63307,-2.60433 -0.70102,0.30121 -0.28127,0.41984 1.57282,0.44448 2.76659,0.0368 5.94809,1.3704 6.89811,2.89161 0.31709,0.50777 0.66761,0.83214 0.77892,0.72084 0.11136,-0.11137 -0.16623,-0.76499 -0.61678,-1.4526 z m -23.42527,-3.35034 c 1.42743,-0.41497 3.08066,-0.61791 3.67384,-0.451 0.84364,0.23737 0.92233,0.19413 0.36137,-0.19861 -1.77929,-1.24574 -6.44655,-0.0399 -7.90501,2.0424 -1.07129,1.52946 -0.83329,2.0413 0.28695,0.61715 0.61628,-0.78349 1.96322,-1.5391 3.58285,-2.00994 z m -28.47482,2.22012 c 0,-0.58727 0.30869,-0.99602 0.7522,-0.99602 0.44521,0 0.68909,0.32527 0.5976,0.79703 -0.23261,1.19942 -1.3498,1.36411 -1.3498,0.19899 z m 70.53363,0.46347 c -0.42035,-0.68015 0.11571,-1.45949 1.00386,-1.45949 0.41888,0 0.65882,0.33587 0.56938,0.79703 -0.1862,0.96022 -1.14078,1.36216 -1.57324,0.66246 z m -53.77141,-4.78812 c -0.33072,-0.20439 -0.52387,-0.77364 -0.42924,-1.26502 0.20394,-1.05903 1.79989,-1.49471 2.33048,-0.63621 0.76264,1.23401 -0.66724,2.66388 -1.90124,1.90123 z m 37.26178,-1.24647 c 0,-1.00051 0.19959,-1.20013 1.07568,-1.0757 0.69132,0.0982 1.13031,0.53718 1.22849,1.22846 0.12439,0.8761 -0.0752,1.07571 -1.07571,1.07571 -1.00051,0 -1.22846,-0.22796 -1.22846,-1.22847 z m -11.47413,-8.60055 c 0,-0.40995 0.21515,-0.61239 0.47809,-0.44987 0.26296,0.16242 0.47809,0.49791 0.47809,0.74535 0,0.24742 -0.21513,0.44986 -0.47809,0.44986 -0.26294,0 -0.47809,-0.3354 -0.47809,-0.74534 z m -14.77087,-0.17981 c -0.81404,-0.50327 -0.3516,-1.9433 0.62405,-1.9433 1.04968,0 1.44205,0.95748 0.6974,1.7019 -0.41086,0.41071 -0.9024,0.5005 -1.32145,0.2414 z m 12.95015,-1.02299 c 0.0942,-0.28265 0.37569,-0.51394 0.6255,-0.51394 0.24981,0 0.53128,0.23129 0.6255,0.51394 0.0942,0.28267 -0.18725,0.51395 -0.6255,0.51395 -0.43825,0 -0.71971,-0.23128 -0.6255,-0.51395 z m -19.46359,-0.9355 c -0.18567,-0.30042 -0.11263,-0.77117 0.16224,-1.04612 0.64251,-0.64251 2.14048,-0.082 1.87908,0.703 -0.26611,0.7992 -1.61898,1.0266 -2.04139,0.34312 z m 21.28431,-0.22386 c 0,-0.39442 0.21515,-0.71713 0.47809,-0.71713 0.26296,0 0.47809,0.32271 0.47809,0.71713 0,0.39443 -0.21513,0.71714 -0.47809,0.71714 -0.26294,0 -0.47809,-0.32271 -0.47809,-0.71714 z m 5.01993,0.23905 c -0.39014,-0.63125 0.13237,-1.43426 0.93324,-1.43426 0.69928,0 1.32274,1.17031 0.86649,1.62656 -0.44582,0.44582 -1.4732,0.33604 -1.79973,-0.1923 z m -17.00365,-1.13727 c -0.14884,-0.15409 -1.06895,-0.38254 -2.04479,-0.50748 -0.97585,-0.12494 -2.03122,-0.38596 -2.34527,-0.58005 -0.31404,-0.19409 -1.15799,-0.30817 -1.87542,-0.2535 -0.82351,0.0626 -1.69179,-0.29934 -2.35512,-0.98208 -0.8029,-0.82642 -0.98122,-0.88415 -0.75613,-0.24481 0.24385,0.69263 0.009,0.83666 -1.36374,0.83666 -2.17254,0 -3.77248,-1.5213 -3.35389,-3.18906 0.19308,-0.76931 0.12277,-1.08456 -0.19762,-0.88654 -0.2735,0.16913 -0.49725,0.63229 -0.49725,1.0295 0,1.06746 -1.90464,0.62427 -2.73793,-0.63712 -0.63732,-0.96468 -0.59331,-1.15651 0.52108,-2.27089 0.66947,-0.66948 1.63425,-1.21723 2.14397,-1.21723 0.50972,0 1.04222,-0.30092 1.18337,-0.66872 0.23817,-0.62061 1.25814,-0.82793 7.25605,-1.47471 1.05181,-0.11336 2.71914,-0.35113 3.70519,-0.52822 1.68803,-0.30316 1.79704,-0.24845 1.86455,0.93579 0.0394,0.69177 0.0933,1.49472 0.11952,1.78429 0.044,0.48533 -2.36849,0.87496 -6.29899,1.01735 -0.88633,0.0321 -1.49044,0.27997 -1.39198,0.57117 0.10303,0.30459 1.1116,0.44571 2.47251,0.34596 1.8003,-0.132 2.24388,-0.0259 2.04626,0.48905 -0.20851,0.54338 0.49824,0.5976 4.07037,0.31218 2.37749,-0.18996 4.67634,-0.15608 5.10855,0.0752 0.45803,0.24512 1.07427,0.23809 1.47723,-0.0163 1.10501,-0.69912 4.19237,-0.52037 5.85455,0.33896 1.38175,0.71432 1.46804,0.71625 0.89025,0.0197 -0.55623,-0.67055 -0.47701,-0.81216 0.60645,-1.08409 0.68543,-0.17202 1.82028,-0.20305 2.52184,-0.069 1.44001,0.27526 2.53144,-0.0197 2.53144,-0.68437 0,-0.24548 -0.80677,-0.43773 -1.79284,-0.42724 -3.66814,0.039 -7.29429,-0.25438 -7.29259,-0.59 7.4e-4,-0.19058 0.001,-1.01992 0.001,-1.84295 v -1.49645 l 2.27092,0.31806 c 1.249,0.17491 2.80877,0.42508 3.46613,0.5559 0.65738,0.13092 2.42982,0.22985 3.93877,0.22001 2.23965,-0.0145 2.85352,0.15808 3.3421,0.94053 0.32919,0.5271 1.03678,0.95838 1.57238,0.95838 1.46499,0 3.09895,1.35032 3.09895,2.56098 0,2.2133 -2.31046,3.02026 -3.27607,1.14421 l -0.55368,-1.07569 0.2867,1.11637 c 0.41494,1.61645 -1.41893,3.42546 -3.47273,3.42546 -0.8835,0 -1.58997,-0.24536 -1.58997,-0.55219 0,-0.32367 -0.37429,-0.21347 -0.90443,0.26632 -0.61378,0.55547 -1.65085,0.80271 -3.2271,0.76932 -1.27745,-0.0269 -3.59405,0.0978 -5.14797,0.27731 -2.62611,0.30346 -2.80119,0.26366 -2.48341,-0.56446 0.28759,-0.74943 0.15699,-0.71735 -0.82153,0.20204 -0.79836,0.75001 -1.96931,1.17459 -3.73174,1.35309 -1.41257,0.14305 -2.69005,0.13399 -2.83886,-0.0201 z m -16.46253,-1.25318 c -0.19084,-0.30877 -0.13183,-0.77653 0.13109,-1.03949 0.31873,-0.31873 0.59375,-0.29095 0.82505,0.0833 0.19083,0.30878 0.13182,0.77654 -0.1311,1.03948 -0.31873,0.31873 -0.59374,0.29096 -0.82504,-0.0833 z m 44.54189,-2.70917 c -0.5501,-0.55011 -0.34817,-1.11553 0.3984,-1.11553 0.39443,0 0.71715,0.32271 0.71715,0.71713 0,0.74657 -0.56545,0.94851 -1.11555,0.3984 z m 2.31077,-2.0717 c -0.19084,-0.30879 -0.13183,-0.77654 0.13109,-1.0395 0.31873,-0.31872 0.59376,-0.29094 0.82506,0.0833 0.19084,0.30876 0.13182,0.77653 -0.1311,1.03949 -0.31872,0.31872 -0.59376,0.29094 -0.82505,-0.0833 z M 82.01622,168.4701 c 0,-0.84427 1.02921,-0.69723 1.32471,0.18924 0.10411,0.31227 -0.15138,0.56775 -0.56774,0.56775 -0.41633,0 -0.75697,-0.34064 -0.75697,-0.75699 z m 21.33278,-2.52154 c -0.14467,-1.48366 -0.39416,-4.63385 -0.5543,-7.00038 -0.31581,-4.66703 -2.38942,-20.78775 -3.0549,-23.74958 l -0.41075,-1.82815 2.45915,-0.0106 c 2.40575,-0.0103 6.08264,-1.28083 6.72788,-2.32484 0.29614,-0.47916 0.57061,-0.37281 3.04878,1.18146 0.0804,0.0505 -0.18825,2.96615 -0.59702,6.47937 -0.74152,6.37291 -0.90538,9.85314 -0.40435,8.58832 0.14559,-0.36735 0.6126,-3.80959 1.03796,-7.64942 l 0.77338,-6.98152 1.67331,0.16516 c 0.92032,0.0908 1.69801,0.1984 1.72818,0.23904 0.0303,0.0406 -0.45318,3.30098 -1.07411,7.24521 -1.3752,8.73559 -2.56384,19.71409 -2.57373,23.7713 -0.003,1.65091 -0.19185,3.29285 -0.41739,3.64877 -0.27579,0.43526 -1.66864,0.69232 -4.2545,0.78521 l -3.84444,0.13815 z m 27.71745,0.96277 c -0.1655,-0.26768 -0.0679,-0.63068 0.21689,-0.80667 0.73505,-0.45427 1.2093,0.16804 0.59568,0.78161 -0.34336,0.34336 -0.61077,0.35159 -0.81257,0.0249 z m -3.63182,-1.98705 c 0,-0.26294 0.21513,-0.47809 0.47807,-0.47809 0.26295,0 0.47809,0.21515 0.47809,0.47809 0,0.26295 -0.21514,0.47809 -0.47809,0.47809 -0.26294,0 -0.47807,-0.21514 -0.47807,-0.47809 z m -34.90045,-1.43425 c 0,-0.26296 0.21513,-0.47809 0.47809,-0.47809 0.26293,0 0.47807,0.21513 0.47807,0.47809 0,0.26293 -0.21514,0.47808 -0.47807,0.47808 -0.26296,0 -0.47809,-0.21515 -0.47809,-0.47808 z m 5.11261,-0.30575 c -0.38198,-0.38196 0.0498,-1.12852 0.65265,-1.12852 0.24744,0 0.44989,0.32271 0.44989,0.71713 0,0.73932 -0.56414,0.94982 -1.10254,0.41139 z m 19.26989,-0.41139 c 0,-0.39442 0.21513,-0.71713 0.47809,-0.71713 0.26295,0 0.47809,0.32271 0.47809,0.71713 0,0.39443 -0.21514,0.71714 -0.47809,0.71714 -0.26296,0 -0.47809,-0.32271 -0.47809,-0.71714 z m 4.09839,-9.23505 c -1.53789,-0.69078 -2.29277,-0.75839 -4.17106,-0.37364 -1.26132,0.25838 -2.43586,0.32725 -2.61005,0.15301 -0.1742,-0.1742 -0.0413,-2.70836 0.29542,-5.63144 0.70644,-6.13326 1.15087,-6.6864 4.62137,-5.75189 2.36872,0.63783 3.72066,2.02662 3.35055,3.44186 -0.15681,0.59968 -0.0943,0.85962 0.14721,0.61334 0.23068,-0.23509 0.48757,-1.28799 0.57086,-2.33978 0.13689,-1.72922 0.35576,-2.01538 2.28467,-2.98805 2.29574,-1.1577 5.65934,-1.41656 7.26191,-0.55888 0.53113,0.28425 1.07386,0.40866 1.20606,0.27646 0.13219,-0.1322 -0.35447,-0.55203 -1.08148,-0.93295 -1.24218,-0.65086 -1.26634,-0.72172 -0.40083,-1.17607 0.50655,-0.26593 1.6202,-0.63361 2.4748,-0.81709 2.06571,-0.4435 1.96661,-1.35051 -0.23451,-2.14646 -0.98356,-0.35564 -2.35218,-1.25031 -3.0414,-1.98812 -1.16357,-1.24561 -1.38377,-1.3054 -3.0812,-0.83673 -1.9374,0.53495 -4.66475,0.28175 -6.63505,-0.61599 -1.09424,-0.49855 -1.13418,-0.62298 -0.49365,-1.53747 0.38332,-0.54726 0.6904,-1.21607 0.68239,-1.48624 -0.007,-0.27019 -0.24524,-0.0943 -0.52722,0.39079 -0.75351,1.2963 -4.1636,2.6812 -6.62956,2.69238 -2.61422,0.0117 -5.525,-1.32868 -5.4316,-2.5015 0.0856,-1.07651 -0.0163,-1.0557 -1.48001,0.30033 -2.52979,2.34451 -8.20193,2.8184 -11.82765,0.98815 -0.98305,-0.49625 -1.35383,-0.56006 -0.98189,-0.169 0.89642,0.94249 0.74403,1.24869 -0.90799,1.82459 -2.42607,0.84573 -6.18136,0.64413 -7.93664,-0.42608 -1.49254,-0.91003 -1.75442,-1.50242 -1.58744,-3.5909 0.0636,-0.79497 -0.007,-0.83527 -0.41573,-0.23905 -0.72596,1.05782 -0.6113,3.14281 0.21034,3.82471 0.39441,0.32734 0.71713,0.74435 0.71713,0.92668 0,0.51366 -3.61024,2.41993 -4.58302,2.41993 -0.67449,0 -0.73969,0.1275 -0.29349,0.57371 0.87979,0.87977 0.68252,1.81673 -0.38246,1.81673 -0.5259,0 -0.95618,0.21514 -0.95618,0.4781 0,0.26295 0.61331,0.47808 1.36292,0.47808 1.4951,0 4.27538,0.83103 5.20201,1.55488 0.46105,0.36015 0.43512,0.67943 -0.11951,1.47128 -1.14522,1.63504 -0.81078,2.40524 0.42204,0.97198 0.97114,-1.12901 1.4763,-1.30896 3.58529,-1.27714 1.37931,0.0208 2.96302,0.37001 3.61472,0.79703 0.91525,0.59969 1.46277,0.65438 2.59617,0.25928 0.78995,-0.27539 2.04235,-0.43116 2.78311,-0.34617 1.29654,0.14884 1.36784,0.29731 1.91016,3.97925 0.98166,6.66473 1.28148,6.15119 -3.42012,5.85787 -2.77051,-0.17293 -4.62599,-0.0495 -5.85659,0.38973 -3.33799,1.19101 -6.28339,0.71521 -10.16782,-1.64253 -0.39444,-0.2394 -1.98863,-0.67014 -3.54268,-0.95718 -3.16809,-0.58523 -5.54132,-1.99286 -6.71788,-3.98462 -0.5396,-0.91346 -1.17964,-1.3366 -2.02178,-1.3366 -2.20632,0 -4.91591,-1.08199 -6.73376,-2.68887 l -1.78076,-1.57412 1.43427,-0.0304 c 1.71743,-0.0364 5.00125,-1.45878 5.91382,-2.56156 0.53285,-0.64389 0.2233,-0.60044 -1.66122,0.23318 -2.68624,1.18825 -7.33613,1.37793 -10.68945,0.43605 -3.07047,-0.86242 -5.75441,-3.66347 -5.75441,-6.00553 0,-1.43696 0.36259,-2.14837 1.85612,-3.64191 2.21464,-2.21463 2.89874,-2.29475 4.22913,-0.49529 1.05283,1.42403 3.19914,2.64221 5.62792,3.19423 1.02041,0.23191 0.72156,-0.0399 -1.03565,-0.94212 -5.78752,-2.97142 -5.83699,-8.37769 -0.10466,-11.44464 1.41605,-0.75764 2.09059,-1.26185 1.49895,-1.12045 -0.86565,0.20687 -1.07569,0.0532 -1.07569,-0.78702 0,-2.43157 3.21489,-4.77022 5.86194,-4.2642 0.72593,0.13877 1.85916,0.89323 2.51832,1.67659 l 1.19844,1.42428 -1.47475,1.67967 c -1.81016,2.06166 -2.38341,3.49677 -2.31192,5.78784 l 0.055,1.7617 0.33491,-1.71321 c 0.52684,-2.69506 2.20308,-4.94704 4.6896,-6.30038 2.67119,-1.45384 6.70771,-2.13561 8.13178,-1.37347 0.8423,0.45079 1.04816,0.33054 1.56332,-0.91315 1.96818,-4.7516 9.64831,-6.76427 15.21896,-3.9883 l 2.50713,1.24935 -1.93517,1.65643 c -1.06435,0.91104 -1.93517,1.88815 -1.93517,2.17137 0,0.28321 0.3765,0.17692 0.83665,-0.2362 1.81166,-1.62646 5.04598,-2.50477 9.20321,-2.49922 4.50393,0.006 6.96204,0.67315 9.09582,2.4686 2.00696,1.68873 1.77708,0.36409 -0.27221,-1.56864 -2.72715,-2.57203 -8.47011,-3.77698 -12.49712,-2.62206 -1.25516,0.35998 -1.6656,0.26903 -2.38727,-0.52896 -2.7606,-3.05259 -9.41351,-4.03649 -13.30182,-1.96722 -1.95703,1.04149 -4.02939,3.01053 -4.9055,4.6609 -0.40615,0.76509 -0.93684,0.90618 -3.05204,0.81138 -1.40823,-0.0631 -3.5018,0.21933 -4.65238,0.62765 -2.54009,0.90144 -2.44986,0.89922 -2.44986,0.0601 0,-0.37528 -0.76357,-1.31173 -1.69683,-2.081 l -1.69684,-1.39867 1.33826,-0.87998 c 0.73605,-0.48399 2.08291,-1.00203 2.99303,-1.15119 1.3641,-0.22357 1.7064,-0.52225 1.94886,-1.70038 0.97302,-4.72834 5.39655,-6.82647 9.61995,-4.56287 1.68836,0.9049 1.75698,0.9061 2.53698,0.0442 2.19481,-2.42524 9.77299,-4.020503 14.356,-3.02202 1.60637,0.34998 2.23363,0.23469 3.95373,-0.726693 2.75482,-1.53969 6.80033,-1.8759 10.30679,-0.85654 1.49308,0.43404 2.70886,0.94451 2.7018,1.13438 -0.007,0.18986 -0.82677,0.846693 -1.82153,1.459623 -0.99477,0.61294 -2.06082,1.51817 -2.36901,2.01165 -0.45971,0.73613 -0.25126,0.68749 1.16105,-0.27094 3.25316,-2.20765 7.20678,-2.69545 11.50388,-1.41935 3.16539,0.94002 4.04646,1.91921 2.08065,2.31237 -1.47763,0.29553 -4.7888,2.22179 -4.7992,2.79192 -0.003,0.1787 1.01596,-0.25158 2.265,-0.95618 2.04315,-1.15259 2.75046,-1.28109 7.05179,-1.28109 4.38145,0 4.98994,0.11584 7.28278,1.38633 1.37602,0.76248 2.81866,1.86982 3.20584,2.46075 0.66362,1.0128 0.62236,1.10825 -0.7193,1.66398 -1.77475,0.73513 -2.39629,1.59352 -0.68184,0.94169 4.96892,-1.88918 11.23126,1.32258 11.23126,5.76019 0,1.28935 -0.1835,1.79183 -0.59762,1.6365 -0.32868,-0.12327 -1.56572,-0.0326 -2.74901,0.20167 l -2.15139,0.42582 1.91236,0.055 c 4.51204,0.12989 8.39155,2.19518 9.61249,5.11731 0.90542,2.16696 0.85181,2.65326 -0.51441,4.6665 -0.64944,0.95701 -0.99127,1.74002 -0.75962,1.74002 0.4862,0 2.70347,-2.53567 3.01546,-3.44847 0.30999,-0.90698 4.40373,1.17555 5.45014,2.77254 0.4578,0.6987 0.81058,2.05097 0.78396,3.00503 -0.039,1.39607 -0.42797,2.07177 -1.99298,3.46186 -1.06954,0.94996 -2.9193,2.00012 -4.1106,2.33365 -3.13592,0.87801 -8.72043,0.41835 -11.31344,-0.93119 l -2.08336,-1.08429 0.95617,1.06006 c 0.5259,0.58304 1.76297,1.47182 2.74902,1.97508 0.98606,0.50326 1.79283,1.1035 1.79283,1.33386 0,1.61973 -6.24795,4.8207 -9.40948,4.8207 -0.63003,0 -1.10846,0.28816 -1.10846,0.66759 0,1.84853 -5.99115,5.06946 -9.42948,5.06946 -0.62063,0 -1.59195,0.43185 -2.15846,0.95962 -2.0943,1.95115 -6.12825,2.40861 -9.17425,1.04042 z m 18.62539,-36.78095 c -0.44674,-1.78999 -1.56752,-2.95805 -3.83929,-4.00125 -2.63869,-1.21169 -7.47152,-1.17578 -10.23057,0.076 -2.51598,1.14152 -2.40305,1.59238 0.21759,0.86864 4.37071,-1.20707 10.96787,0.3986 12.97665,3.15837 1.11137,1.52687 1.27727,1.50758 0.87562,-0.10177 z m 3.64356,32.44494 c -0.94522,-0.59835 -0.47065,-2.20587 0.65119,-2.20587 0.68549,0 0.94964,0.32139 0.94964,1.1554 0,1.2751 -0.61179,1.67656 -1.60083,1.05047 z m -76.39374,-1.24969 c -0.42215,-1.10011 0.2057,-2.24066 1.13492,-2.0617 1.03734,0.19976 1.40005,1.80561 0.53207,2.35566 -0.93358,0.59164 -1.35572,0.5172 -1.66699,-0.29396 z m 86.0559,-4.30278 c -0.42215,-1.10012 0.20569,-2.24068 1.13492,-2.06173 1.03734,0.19977 1.40003,1.80561 0.53207,2.35568 -0.93358,0.59162 -1.35572,0.51718 -1.66699,-0.29395 z m -95.4553,-0.0632 c -0.5651,-0.56511 -0.37244,-1.97169 0.3057,-2.23191 0.96366,-0.3698 1.86597,0.38092 1.67152,1.39066 -0.17727,0.92088 -1.38413,1.43433 -1.97722,0.84125 z m 34.66082,-5.0524 c -1.27047,-1.27049 -0.34738,-3.72909 1.40011,-3.72909 0.98568,0 2.32898,1.24088 2.32898,2.1514 0,1.67224 -2.55398,2.75279 -3.72909,1.57769 z m -6.13925,-1.58128 c -0.16622,-0.43325 0.0109,-1.10166 0.39536,-1.48536 0.9566,-0.95661 2.39144,-0.33771 2.2074,0.95214 -0.18133,1.27083 -2.16385,1.67699 -2.60276,0.53322 z m 72.29229,-17.54397 c -0.6288,-0.89772 -0.64203,-1.19821 -0.0894,-2.03188 1.23975,-1.87059 3.64174,-1.27901 3.64174,0.89693 0,2.20971 -2.28752,2.94058 -3.55223,1.13495 z M 54.60583,117.27474 c -0.6564,-0.65639 -0.28577,-2.5338 0.59305,-3.00413 0.69244,-0.37059 1.16778,-0.28068 1.97599,0.37378 0.90526,0.73303 0.98078,1.01764 0.50566,1.90541 -0.5338,0.99743 -2.36942,1.43023 -3.0747,0.72494 z m 12.11156,-9.72113 c -0.52589,-0.52589 -0.95618,-1.38645 -0.95618,-1.91235 0,-0.5259 0.43029,-1.38645 0.95618,-1.91235 0.5259,-0.5259 1.38647,-0.95618 1.91236,-0.95618 1.23134,0 2.86852,1.63718 2.86852,2.86853 0,0.5259 -0.43027,1.38646 -0.95618,1.91235 -0.52589,0.5259 -1.38645,0.95618 -1.91234,0.95618 -0.52589,0 -1.38646,-0.43028 -1.91236,-0.95618 z m 77.26773,-0.2509 c -0.58525,-0.58524 -0.65234,-0.99467 -0.27771,-1.69465 0.59935,-1.11992 1.55915,-1.18605 2.40593,-0.16577 0.44434,0.53543 0.48649,0.98217 0.14395,1.52533 -0.70089,1.11115 -1.39385,1.21335 -2.27211,0.33509 z m -14.99672,-5.3247 c -0.83715,-0.3378 -0.74702,-2.046483 0.12568,-2.381353 1.15837,-0.44451 2.21785,0.712923 1.64034,1.792013 -0.49746,0.92953 -0.7303,1.00724 -1.76596,0.58934 z m -3.34661,-2.868533 c -0.85182,-0.34371 -0.74025,-2.04909 0.15664,-2.39323 0.4148,-0.15919 1.09553,0.0519 1.51271,0.46909 0.62521,0.62521 0.65041,0.88877 0.1434,1.49965 -0.64353,0.77541 -0.83306,0.8198 -1.81273,0.42449 z m -26.62292,-1.65714 c -1.4059,-1.10588 -1.54235,-2.14231 -0.48149,-3.65691 1.45844,-2.0822 4.99283,-0.78091 4.99283,1.83826 0,0.84137 -1.19271,2.04291 -2.47945,2.49782 -0.45656,0.16141 -1.33771,-0.13311 -2.03189,-0.67917 z m 30.3252,0.29697 c -0.52734,-0.63541 -0.51432,-0.8794 0.0786,-1.47233 0.96621,-0.96621 2.40611,-0.36043 2.22049,0.93418 -0.17998,1.25564 -1.4558,1.55426 -2.29909,0.53815 z"
       id="path887"
       inkscape:export-xdpi="20.705889"
       inkscape:export-ydpi="20.705889" />
  </g>
</svg>
