<?xml version="1.0" encoding="UTF-8" standalone="no"?>
<svg
   xmlns:dc="http://purl.org/dc/elements/1.1/"
   xmlns:cc="http://creativecommons.org/ns#"
   xmlns:rdf="http://www.w3.org/1999/02/22-rdf-syntax-ns#"
   xmlns:svg="http://www.w3.org/2000/svg"
   xmlns="http://www.w3.org/2000/svg"
   xmlns:sodipodi="http://sodipodi.sourceforge.net/DTD/sodipodi-0.dtd"
   xmlns:inkscape="http://www.inkscape.org/namespaces/inkscape"
   width="500"
   height="200"
   viewBox="0 0 132.29166 52.916668"
   version="1.1"
   id="svg8"
   inkscape:version="1.0.1 (3bc2e813f5, 2020-09-07)"
   sodipodi:docname="XP-bar.svg">
  <defs
     id="defs2">
    <inkscape:path-effect
       effect="bspline"
       id="path-effect869"
       is_visible="true"
       lpeversion="1"
       weight="33.333333"
       steps="2"
       helper_size="0"
       apply_no_weight="true"
       apply_with_weight="true"
       only_selected="false" />
    <inkscape:path-effect
       effect="bspline"
       id="path-effect865"
       is_visible="true"
       lpeversion="1"
       weight="33.333333"
       steps="2"
       helper_size="0"
       apply_no_weight="true"
       apply_with_weight="true"
       only_selected="false" />
    <rect
       x="7.1406151"
       y="7.0083815"
       width="39.141149"
       height="38.744449"
       id="rect844" />
  </defs>
  <sodipodi:namedview
     id="base"
     pagecolor="#ffffff"
     bordercolor="#666666"
     borderopacity="1.0"
     inkscape:pageopacity="0.0"
     inkscape:pageshadow="2"
     inkscape:zoom="2.000878"
     inkscape:cx="271.05265"
     inkscape:cy="116.42433"
     inkscape:document-units="mm"
     inkscape:current-layer="layer1"
     inkscape:document-rotation="0"
     showgrid="false"
     units="px"
     inkscape:snap-global="false"
     inkscape:window-width="1920"
     inkscape:window-height="1017"
     inkscape:window-x="-8"
     inkscape:window-y="428"
     inkscape:window-maximized="1" />
  <metadata
     id="metadata5">
    <rdf:RDF>
      <cc:Work
         rdf:about="">
        <dc:format>image/svg+xml</dc:format>
        <dc:type
           rdf:resource="http://purl.org/dc/dcmitype/StillImage" />
        <dc:title></dc:title>
      </cc:Work>
    </rdf:RDF>
  </metadata>
  <g
     inkscape:label="Layer 1"
     inkscape:groupmode="layer"
     id="layer1">
    <path
       id="rect833"
       style="opacity:0.5;fill:#333333;stroke:none;stroke-width:0.859999;stroke-linecap:round"
       d="M 39.273426,36.761117 H 116.4315 c 5.60419,0 10.11618,-4.511988 10.11618,-10.11618 0,-5.604193 -4.51199,-10.115661 -10.11618,-10.115661 H 39.273426 Z" />
    <path
       id="rect878"
       style="opacity:0.5;fill:#151515;fill-opacity:0.5;stroke:none;stroke-width:3.25039;stroke-linecap:round"
       d="M 478.10352 98.146484 C 478.36251 105.21492 467.90652 115.86355 460.16797 115.99414 L 148.43555 115.99414 L 148.43555 138.93945 L 440.05664 138.93945 C 461.23783 138.93945 478.29102 121.88628 478.29102 100.70508 C 478.29102 99.892463 478.2565 99.08879 478.20703 98.289062 C 478.17012 98.241384 478.14087 98.194169 478.10352 98.146484 z "
       transform="scale(0.26458333)" />
    <g
       id="g876"
       transform="translate(-1.4025493,0.18700657)">
      <path
         style="fill:#e6ff00;fill-opacity:1;stroke:#000000;stroke-width:0.264583px;stroke-linecap:butt;stroke-linejoin:miter;stroke-opacity:1"
         d="m 40.331252,34.975789 c 0,0 5.15711,-0.330584 5.15711,-0.330584 0,0 0.330584,-7.405081 0.330584,-7.405081 0,0 6.148863,-2.644672 6.148863,-2.644672 0,0 2.710789,-2.843023 2.710789,-2.843023 0,0 0.59505,-3.30584 0.59505,-3.30584 0,0 -0.631897,-2.609089 -0.631897,-2.609089 0,0 -3.335109,-2.812489 -3.335109,-2.812489 0,0 -3.239725,-0.198351 -3.239725,-0.198351 0,0 -6.816839,0.658414 -6.816839,0.658414 0,0 -1.976651,3.044202 -1.976651,3.044202 0,0 0.264422,11.834835 0.264422,11.834835 0,0 0.793403,6.611678 0.793403,6.611678 z"
         id="path863"
         inkscape:path-effect="#path-effect865"
         inkscape:original-d="m 40.331252,34.975789 5.15711,-0.330584 0.330584,-7.405081 6.148863,-2.644672 2.710789,-2.843023 0.59505,-3.30584 -0.631897,-2.609089 -3.335109,-2.812489 -3.239725,-0.198351 -6.816839,0.658414 -1.976651,3.044202 0.264422,11.834835 z"
         sodipodi:nodetypes="ccccccccccccc" />
      <path
         style="fill:#e6ff00;fill-opacity:1;stroke:#000000;stroke-width:0.264583px;stroke-linecap:butt;stroke-linejoin:miter;stroke-opacity:1"
         d="m 19.570575,34.446855 c 0,0 4.892643,0.595051 4.892643,0.595051 0,0 2.843023,-4.628177 2.843023,-4.628177 0,0 3.438075,4.033126 3.438075,4.033126 0,0 4.760409,-0.793401 4.760409,-0.793401 0,0 0.528934,-0.991753 0.528934,-0.991753 0,0 -1.785154,-3.570306 -1.785154,-3.570306 0,0 -2.049621,-5.553812 -2.049621,-5.553812 0,0 0.727286,-2.90914 0.727286,-2.90914 0,0 2.446322,-7.471199 2.446322,-7.471199 0,0 -2.181855,-0.528934 -2.181855,-0.528934 0,0 -3.967009,0.661168 -3.967009,0.661168 0,0 -0.991753,4.429826 -0.991753,4.429826 0,0 -1.454568,-0.859518 -1.454568,-0.859518 0,0 -1.983505,-2.90914 -1.983505,-2.90914 0,0 -3.900892,0 -3.900892,0 0,0 -1.586803,2.776906 -1.586803,2.776906 0,0 2.975257,6.479447 2.975257,6.479447 0,0 0.19835,4.165358 0.19835,4.165358 0,0 -2.909139,7.074498 -2.909139,7.074498 z"
         id="path867"
         inkscape:path-effect="#path-effect869"
         inkscape:original-d="m 19.570575,34.446855 c 0,0 4.892643,0.595051 4.892643,0.595051 0,0 2.843023,-4.628177 2.843023,-4.628177 0,0 3.438075,4.033126 3.438075,4.033126 0,0 4.760409,-0.793401 4.760409,-0.793401 0,0 0.528934,-0.991753 0.528934,-0.991753 0,0 -1.785154,-3.570306 -1.785154,-3.570306 0,0 -2.049621,-5.553812 -2.049621,-5.553812 0,0 0.727286,-2.90914 0.727286,-2.90914 0,0 2.446322,-7.471199 2.446322,-7.471199 0,0 -2.181855,-0.528934 -2.181855,-0.528934 0,0 -3.967009,0.661168 -3.967009,0.661168 0,0 -0.991753,4.429826 -0.991753,4.429826 0,0 -1.454568,-0.859518 -1.454568,-0.859518 0,0 -1.983505,-2.90914 -1.983505,-2.90914 0,0 -3.900892,0 -3.900892,0 0,0 -1.586803,2.776906 -1.586803,2.776906 0,0 2.975257,6.479447 2.975257,6.479447 0,0 0.19835,4.165358 0.19835,4.165358 0,0 -2.909139,7.074498 -2.909139,7.074498 z" />
      <g
         aria-label="XP"
         transform="matrix(1.7433142,0,0,1.7433142,5.4693117,-8.2197106)"
         id="text842"
         style="font-style:normal;font-weight:normal;font-size:10.5833px;line-height:1.25;font-family:sans-serif;letter-spacing:0px;word-spacing:0px;white-space:pre;shape-inside:url(#rect844);fill:#000000;fill-opacity:1;stroke:none">
        <path
           d="m 17.437337,11.567934 q 0.264583,0 0.308681,0.496094 v 0.05512 q -0.03307,0.451997 -1.852085,6.05235 2.348179,5.08221 2.348179,5.346793 v 0.496094 q -1.069359,2.304083 -1.697745,2.304083 -2.855298,0.297656 -3.406514,0.297656 -0.56224,0 -0.992188,-1.752866 -0.09922,0 -0.09922,-0.242535 h -0.05512 q -0.915018,1.94028 -1.245747,1.94028 -2.4033015,0.05512 -3.5498304,0.05512 -0.1984377,0 -0.3527782,-0.253559 v -0.551216 q 0.099219,-0.474046 1.7969637,-5.743669 -1.7969637,-4.564067 -1.7969637,-4.75148 v -0.396876 q 0.8047752,-2.557641 1.2457478,-2.557641 0.4960943,-0.0441 3.2080758,-0.143316 0.463022,0 0.749654,0.848872 h 0.0441 q 1.201651,-1.245748 1.852085,-1.245748 2.259985,-0.253559 3.494709,-0.253559 z m -4.497921,5.049137 h -0.297657 q -0.385851,0 -0.793751,-1.245748 Q 10.93299,13.386946 10.844795,13.3208 l -0.09922,-0.05512 Q 9.9077285,13.3208 9.4447072,13.3208 H 9.1470507 v 0.0441 q 0.3638024,1.003213 2.0946203,4.8507 v 0.551216 q 0,0.253559 -2.0505231,5.401915 h 0.099219 q 1.8520851,0 1.8520851,-0.4079 1.223699,-3.252173 1.499307,-3.593927 h 0.551216 q 0.385851,0 0.948091,1.444185 0.915018,1.78594 1.003213,1.852086 l 0.09922,-0.0441 h 0.0441 q 0.275608,0 1.653648,-0.09922 v -0.05512 Q 14.912768,18.877056 14.791501,18.314816 V 18.1715 q 0,-0.429949 1.697745,-5.556256 h -0.0441 q -2.204863,0.15434 -2.204863,0.352778 -0.848872,3.252174 -1.04731,3.593927 z"
           style="font-style:normal;font-variant:normal;font-weight:normal;font-stretch:normal;font-size:22.5778px;font-family:Napolitana;-inkscape-font-specification:'Napolitana, Normal';font-variant-ligatures:normal;font-variant-caps:normal;font-variant-numeric:normal;font-variant-east-asian:normal"
           id="path858" />
        <path
           d="m 25.374845,11.589982 q 2.17179,0 3.362416,2.171791 0.165365,0.63941 0.165365,1.025261 v 0.683508 q 0,1.311894 -1.135504,4.67431 -0.551216,0.992189 -2.226912,1.653648 -2.050523,0.418924 -2.050523,0.628386 v 1.995401 q 0,0.694532 -1.080383,2.855298 l -0.4079,0.110243 h -2.215888 q -0.496094,0 -1.543404,-0.05512 Q 17.95548,27.0571 17.95548,26.759443 18.18699,14.897279 18.352355,14.897279 l 1.433161,-2.965542 q 0,-0.264583 5.589329,-0.341754 z m -4.508946,1.201651 q 0,0.110243 -0.121267,0.110243 -0.05512,3.968754 -0.05512,5.986204 v 4.960943 q 0,0.08819 0.176389,0.176389 h 1.190626 q 0.308681,0 0.4079,-0.231511 v -4.222313 q 0,-0.617362 1.53238,-0.738629 1.962329,-0.4079 3.031687,-1.311894 0.848873,-1.04731 0.848873,-2.447398 0,-1.631599 -2.226912,-2.34818 -0.507119,-0.06615 -0.628386,-0.110243 z m 2.734031,1.708769 h 0.341754 q 1.488282,0 1.488282,1.422137 0,1.355991 -2.17179,1.598526 h -0.165365 q -0.463021,-0.0441 -0.463021,-0.396875 0,-2.513545 0.341754,-2.513545 0.220486,-0.110243 0.628386,-0.110243 z"
           style="font-style:normal;font-variant:normal;font-weight:normal;font-stretch:normal;font-size:22.5778px;font-family:Napolitana;-inkscape-font-specification:'Napolitana, Normal';font-variant-ligatures:normal;font-variant-caps:normal;font-variant-numeric:normal;font-variant-east-asian:normal;fill:#000000;fill-opacity:1"
           id="path860" />
      </g>
    </g>
  </g>
</svg>
